<svg xmlns="http://www.w3.org/2000/svg" viewBox="0 0 16 16"><path d="M 3.90625 2 C 1.7587328 2 -0.035118883 3.7203 0 5.875 C 0.028268837 7.6094 1.3075767 9.2744 2.71875 10.6875 C 4.1299233 12.1006 5.7422253 13.28405 6.59375 13.90625 L 6.875 14.09375 L 7.15625 13.90625 C 8.0071157 13.28455 9.6451084 12.07235 11.0625 10.65625 C 11.203229 10.51565 11.332024 10.36345 11.46875 10.21875 L 11.09375 9.375 L 11.03125 9.21875 C 10.809408 9.47435 10.589226 9.72345 10.34375 9.96875 C 9.9601337 10.35195 9.5742938 10.7301 9.1875 11.0625 C 8.3226003 11.8059 7.4839878 12.39675 6.875 12.84375 C 6.1261304 12.29365 5.0643313 11.4898 4 10.5 C 3.8146258 10.3276 3.6207704 10.15225 3.4375 9.96875 C 2.0982686 8.62765 1.0198621 7.0936 1 5.875 C 0.9740235 4.2813 2.2983228 3 3.90625 3 C 5.0116594 3 5.9450923 3.595 6.4375 4.5 L 6.875 5.3125 L 7.3125 4.5 C 7.8049077 3.595 8.7383415 3 9.84375 3 C 10.053132 3 10.404169 3.056975 10.580078 3.109375 C 11.835878 3.424475 12.75 4.521 12.75 5.875 L 13.53125 4.6875 C 13.019751 3.1334 11.570917 2 9.84375 2 C 8.6000591 2 7.5858825 2.6537 6.875 3.5625 C 6.1641174 2.6537 5.1499414 2 3.90625 2 z M 10.5 4.2324219 L 8.9042969 7.9550781 L 7.9394531 6.5058594 L 6.6914062 9 L 5 9 L 5 10 L 7.3085938 10 L 8.0625 8.4941406 L 9.0957031 10.046875 L 10.5 6.7695312 L 11.916016 10.070312 L 13.097656 8.2011719 L 13.626953 10 L 15.53125 10 L 15.53125 9 L 14.375 9 L 13.433594 5.8007812 L 12.085938 7.9316406 L 10.5 4.2324219 z " color="#000" enable-background="accumulate" font-family="Sans" font-weight="400" overflow="visible" style="line-height:normal;-inkscape-font-specification:Sans;text-indent:0;text-align:start;text-decoration-line:none;text-transform:none;block-progression:tb;marker:none" fill="#d85b53" class="color000000 svgShape"></path></svg>